<svg width="156" height="210" viewBox="0 0 156 210" fill="none" xmlns="http://www.w3.org/2000/svg">
<path fill-rule="evenodd" clip-rule="evenodd" d="M5 0C2.23858 0 0 2.23858 0 5V171.667C0 181.833 4.03867 191.584 11.2276 198.772C18.4165 205.961 28.1667 210 38.3333 210C41.0948 210 43.3333 207.761 43.3333 205V155V150H33.3333V155V199.555C27.6763 198.541 22.4184 195.821 18.2986 191.701C12.9851 186.388 10 179.181 10 171.667C10 164.152 12.9851 156.946 18.2986 151.632C23.6122 146.318 30.8189 143.333 38.3333 143.333H105C120.127 143.333 134.225 135.314 144.355 121.807C149.145 115.421 152.907 108.01 155.541 100H144.936C142.725 105.822 139.836 111.167 136.355 115.807C127.732 127.305 116.394 133.333 105 133.333H43.3333V110H88.3333C97.906 110 107.11 106.419 114.153 100H88.3541C88.3472 100 88.3403 100 88.3333 100L80 100L43.3333 100V43.3333H80V43H113.783C106.788 36.7901 97.739 33.3333 88.3333 33.3333H38.3333C35.5719 33.3333 33.3333 35.5719 33.3333 38.3333V105V133.661C25.0119 134.755 17.2276 138.561 11.2276 144.561C10.8076 144.981 10.3983 145.41 10 145.847V10H105C116.394 10 127.732 16.0287 136.355 27.5262C139.769 32.0779 142.615 37.3069 144.808 43H155.431C152.803 35.1173 149.078 27.8234 144.355 21.5262C134.225 8.01886 120.127 0 105 0H5Z" fill="white"/>
</svg>
